<svg xmlns="http://www.w3.org/2000/svg" width="64" height="64" viewBox="0 0 64 64" role="img" aria-label="PayPal">
  <defs>
    <linearGradient id="ppGrad" x1="0%" y1="0%" x2="100%" y2="100%">
      <stop offset="0%" stop-color="#003087"/>
      <stop offset="100%" stop-color="#009cde"/>
    </linearGradient>
  </defs>
  <rect width="64" height="64" rx="12" fill="#f5f7fb"/>
  <g transform="translate(12,10)">
    <path d="M24 2c6.6 0 10.8 3.3 10.8 8.8 0 7.6-6.4 11.9-14.5 11.9h-5.2l-1.7 10.8h-7.4L9.1 4.3C9.3 3.1 10.2 2 11.9 2H24z" fill="url(#ppGrad)"/>
    <path d="M35.5 12.3c-.8 6.6-6.9 10.5-15.6 10.5h-4.7l-1.4 9H6.5l2.8-17.7c.2-1.3 1.2-2.3 2.9-2.3h11.6c3.1 0 5.5-.8 7.1-2.1 1.4.6 2.5 1.4 3.1 2.6.9 1.6 1.1 3.5.9 5z" fill="#001c64" opacity="0.9"/>
  </g>
</svg>